<svg xmlns="http://www.w3.org/2000/svg" viewBox="0 0 27 19" width="27" height="19">
	<defs>
		<clipPath clipPathUnits="userSpaceOnUse" id="cp1">
			<path d="M0,23h27v-27h-27z" />
		</clipPath>
	</defs>
	<style>
		tspan { white-space:pre }
		.shp0 { fill: #7f7f7f }
	</style>
	<g id="Mask Group 9" clip-path="url(#cp1)">
		<g id="sale">
			<g id="Group 19">
				<g id="Group 18">
					<path id="Path 27" class="shp0" d="M19.84,12.25c-0.45,0 -0.82,0.37 -0.82,0.82c0,0.45 0.37,0.82 0.82,0.82c0.45,0 0.82,-0.37 0.82,-0.82c0,-0.45 -0.37,-0.82 -0.82,-0.82z" />
				</g>
			</g>
			<g id="Group 21">
				<g id="Group 20">
					<path id="Path 28" class="shp0" d="M14.28,5.11c-0.45,0 -0.82,0.37 -0.82,0.82c0,0.45 0.37,0.82 0.82,0.82c0.45,0 0.82,-0.37 0.82,-0.82c0,-0.45 -0.37,-0.82 -0.82,-0.82z" />
				</g>
			</g>
			<g id="Group 23">
				<g id="Group 22">
					<path id="Path 29" class="shp0" d="M27,0.67v17.67h-18.3v-2.7h-1.58v2.7h-7.12v-6.18l0.39,-0.23c0.86,-0.51 1.38,-1.42 1.38,-2.42c0,-1 -0.52,-1.91 -1.38,-2.42l-0.39,-0.23v-6.18h7.12v2.7h1.58v-2.7zM8.7,10.55h-1.58v2.99h1.58zM8.7,5.46h-1.58v2.99h1.58zM11.88,5.93c0,1.33 1.08,2.4 2.4,2.4c1.33,0 2.4,-1.08 2.4,-2.4c0,-1.33 -1.08,-2.4 -2.4,-2.4c-1.33,0 -2.4,1.08 -2.4,2.4zM13.54,15.48l8.31,-11l-1.26,-0.95l-8.31,11zM22.25,13.07c0,-1.33 -1.08,-2.4 -2.4,-2.4c-1.33,0 -2.4,1.08 -2.4,2.4c0,1.33 1.08,2.4 2.4,2.4c1.33,0 2.4,-1.08 2.4,-2.4z" />
				</g>
			</g>
		</g>
	</g>
</svg>
