<svg xmlns="http://www.w3.org/2000/svg" xmlns:xlink="http://www.w3.org/1999/xlink" viewBox="0 0 800 800">
  <defs>
    <style>
      .cls-1 {
        fill: none;
      }

      .cls-2 {
        clip-path: url(#clip-Custom_Size_1);
      }

      .cls-3 {
        clip-path: url(#clip-path);
      }

      .cls-4 {
        clip-path: url(#clip-path-2);
      }

      .cls-15, .cls-5 {
        opacity: 0.65;
      }

      .cls-17, .cls-18, .cls-6 {
        font-size: 52px;
        font-family: Roboto-Bold, Roboto;
        font-weight: 700;
      }

      .cls-19, .cls-7 {
        opacity: 0.38;
      }

      .cls-8 {
        fill: #ffeee5;
      }

      .cls-9 {
        fill: #f8f8f8;
      }

      .cls-10 {
        fill: #f6f6f6;
      }

      .cls-11 {
        fill: #9cc283;
      }

      .cls-12 {
        clip-path: url(#clip-path-3);
      }

      .cls-13, .cls-15 {
        fill: #ebebeb;
      }

      .cls-14 {
        clip-path: url(#clip-path-4);
      }

      .cls-16 {
        fill: url(#linear-gradient);
      }

      .cls-17, .cls-18 {
        fill: #edbf85;
      }

      .cls-18 {
        opacity: 0.36;
      }

      .cls-19 {
        fill: #ffd0cb;
      }

      .cls-20 {
        fill: #fff;
      }
    </style>
    <clipPath id="clip-path">
      <rect class="cls-1" width="272.311" height="72.959"/>
    </clipPath>
    <clipPath id="clip-path-2">
      <rect class="cls-1" width="181.883" height="168.525"/>
    </clipPath>
    <clipPath id="clip-path-3">
      <rect class="cls-1" width="265" height="71"/>
    </clipPath>
    <clipPath id="clip-path-4">
      <rect class="cls-1" width="177" height="164"/>
    </clipPath>
    <linearGradient id="linear-gradient" x1="0.643" y1="0.207" x2="0.54" y2="0.349" gradientUnits="objectBoundingBox">
      <stop offset="0" stop-color="#96af86"/>
      <stop offset="1" stop-color="#9cc283"/>
    </linearGradient>
    <clipPath id="clip-Custom_Size_1">
      <rect width="800" height="800"/>
    </clipPath>
  </defs>
  <g id="Custom_Size_1" data-name="Custom Size – 1" class="cls-2">
    <rect class="cls-20" width="800" height="800"/>
    <g id="Group_2" data-name="Group 2" transform="translate(-11 -8)">
      <path id="Path_1" data-name="Path 1" d="M0,0H296V55.614c0,81.133-56.312,121.448-136.9,121.448H132.582C52,177.061,0,136.747,0,55.614Z" transform="translate(263 592.939)"/>
      <circle id="Ellipse_2" data-name="Ellipse 2" cx="20.552" cy="20.552" r="20.552" transform="translate(301.335 655.622)"/>
      <circle id="Ellipse_11" data-name="Ellipse 11" cx="20.552" cy="20.552" r="20.552" transform="translate(478.561 655.622)"/>
      <path id="Rectangle_1" data-name="Rectangle 1" d="M0,0H58.573a0,0,0,0,1,0,0V12.845A29.286,29.286,0,0,1,29.286,42.131h0A29.286,29.286,0,0,1,0,12.845V0A0,0,0,0,1,0,0Z" transform="translate(381.214 703.918)"/>
      <rect id="Rectangle_3" data-name="Rectangle 3" width="275.283" height="188.049" transform="translate(272.294 358.526)"/>
      <rect id="Rectangle_2" data-name="Rectangle 2" width="313.277" height="100.483" rx="5" transform="translate(252.794 521.222)"/>
      <ellipse id="Ellipse_4" data-name="Ellipse 4" cx="92.983" cy="92.483" rx="92.983" ry="92.483" transform="translate(192.793 90.883)"/>
      <ellipse id="Ellipse_5" data-name="Ellipse 5" cx="90.983" cy="92.483" rx="90.983" ry="92.483" transform="translate(446.186 90.883)"/>
      <ellipse id="Ellipse_6" data-name="Ellipse 6" cx="96.135" cy="100.635" rx="96.135" ry="100.635" transform="translate(503.73 166.869)"/>
      <ellipse id="Ellipse_7" data-name="Ellipse 7" cx="95.635" cy="100.635" rx="95.635" ry="100.635" transform="translate(126 166.869)"/>
      <rect id="Rectangle_4" data-name="Rectangle 4" width="380.318" height="98.4" transform="translate(221.448 270.187)"/>
      <ellipse id="Ellipse_3" data-name="Ellipse 3" cx="135.642" cy="134.642" rx="135.642" ry="134.642" transform="translate(273.294 60)"/>
      <g id="Repeat_Grid_1" data-name="Repeat Grid 1" class="cls-3" transform="translate(273.301 545.713)">
        <g transform="translate(-267 -536)">
          <rect id="Rectangle_5" data-name="Rectangle 5" width="5" height="71" transform="translate(267 536)"/>
        </g>
        <g transform="translate(-215 -536)">
          <rect id="Rectangle_5-2" data-name="Rectangle 5" width="5" height="71" transform="translate(267 536)"/>
        </g>
        <g transform="translate(-163 -536)">
          <rect id="Rectangle_5-3" data-name="Rectangle 5" width="5" height="71" transform="translate(267 536)"/>
        </g>
        <g transform="translate(-111 -536)">
          <rect id="Rectangle_5-4" data-name="Rectangle 5" width="5" height="71" transform="translate(267 536)"/>
        </g>
        <g transform="translate(-59 -536)">
          <rect id="Rectangle_5-5" data-name="Rectangle 5" width="5" height="71" transform="translate(267 536)"/>
        </g>
        <g transform="translate(-7 -536)">
          <rect id="Rectangle_5-6" data-name="Rectangle 5" width="5" height="71" transform="translate(267 536)"/>
        </g>
      </g>
      <g id="Repeat_Grid_2" data-name="Repeat Grid 2" class="cls-4" transform="translate(319.558 358.62)">
        <g transform="translate(-310 -353)">
          <path id="Rectangle_6" data-name="Rectangle 6" class="cls-5" d="M4.5,0h0A4.5,4.5,0,0,1,9,4.5V142a0,0,0,0,1,0,0H0a0,0,0,0,1,0,0V4.5A4.5,4.5,0,0,1,4.5,0Z" transform="translate(310 375)"/>
        </g>
        <g transform="translate(-226 -353)">
          <path id="Rectangle_6-2" data-name="Rectangle 6" class="cls-5" d="M4.5,0h0A4.5,4.5,0,0,1,9,4.5V142a0,0,0,0,1,0,0H0a0,0,0,0,1,0,0V4.5A4.5,4.5,0,0,1,4.5,0Z" transform="translate(310 375)"/>
        </g>
        <g transform="translate(-142 -353)">
          <path id="Rectangle_6-3" data-name="Rectangle 6" class="cls-5" d="M4.5,0h0A4.5,4.5,0,0,1,9,4.5V142a0,0,0,0,1,0,0H0a0,0,0,0,1,0,0V4.5A4.5,4.5,0,0,1,4.5,0Z" transform="translate(310 375)"/>
        </g>
      </g>
      <text id="_4FIT" data-name="4FIT" class="cls-6" transform="translate(426.212 399.169) rotate(90)"><tspan x="0" y="0">4FIT</tspan></text>
      <ellipse id="Ellipse_12" data-name="Ellipse 12" class="cls-7" cx="19.524" cy="7.193" rx="19.524" ry="7.193" transform="translate(302.366 711.111)"/>
      <ellipse id="Ellipse_13" data-name="Ellipse 13" class="cls-7" cx="19.524" cy="7.193" rx="19.524" ry="7.193" transform="translate(479.586 711.111)"/>
    </g>
    <g id="Group_1" data-name="Group 1" transform="translate(0 2)">
      <path id="Path_1-2" data-name="Path 1" class="cls-8" d="M0,0H284V53.815c0,78.509-54.029,117.52-131.349,117.52H127.207C49.887,171.335,0,132.324,0,53.815Z" transform="translate(258 583)"/>
      <circle id="Ellipse_2-2" data-name="Ellipse 2" cx="20" cy="20" r="20" transform="translate(295 644)"/>
      <circle id="Ellipse_11-2" data-name="Ellipse 11" cx="20" cy="20" r="20" transform="translate(466 644)"/>
      <path id="Rectangle_1-2" data-name="Rectangle 1" d="M0,0H57a0,0,0,0,1,0,0V12.5A28.5,28.5,0,0,1,28.5,41h0A28.5,28.5,0,0,1,0,12.5V0A0,0,0,0,1,0,0Z" transform="translate(372 691)"/>
      <rect id="Rectangle_3-2" data-name="Rectangle 3" class="cls-9" width="264" height="183" transform="translate(267 353)"/>
      <rect id="Rectangle_2-2" data-name="Rectangle 2" class="cls-10" width="300" height="90" rx="5" transform="translate(249 517)"/>
      <circle id="Ellipse_4-2" data-name="Ellipse 4" class="cls-11" cx="90" cy="90" r="90" transform="translate(186 90)"/>
      <circle id="Ellipse_5-2" data-name="Ellipse 5" class="cls-11" cx="90" cy="90" r="90" transform="translate(433 90)"/>
      <circle id="Ellipse_6-2" data-name="Ellipse 6" class="cls-11" cx="95.5" cy="95.5" r="95.5" transform="translate(489 162)"/>
      <circle id="Ellipse_7-2" data-name="Ellipse 7" class="cls-11" cx="95.5" cy="95.5" r="95.5" transform="translate(121 162)"/>
      <rect id="Rectangle_4-2" data-name="Rectangle 4" class="cls-11" width="374" height="87" transform="translate(206 266)"/>
      <circle id="Ellipse_3-2" data-name="Ellipse 3" class="cls-11" cx="132" cy="132" r="132" transform="translate(267 58)"/>
      <g id="Repeat_Grid_1-2" data-name="Repeat Grid 1" class="cls-12" transform="translate(267 536)">
        <g transform="translate(-267 -536)">
          <rect id="Rectangle_5-7" data-name="Rectangle 5" class="cls-13" width="5" height="71" transform="translate(267 536)"/>
        </g>
        <g transform="translate(-215 -536)">
          <rect id="Rectangle_5-8" data-name="Rectangle 5" class="cls-13" width="5" height="71" transform="translate(267 536)"/>
        </g>
        <g transform="translate(-163 -536)">
          <rect id="Rectangle_5-9" data-name="Rectangle 5" class="cls-13" width="5" height="71" transform="translate(267 536)"/>
        </g>
        <g transform="translate(-111 -536)">
          <rect id="Rectangle_5-10" data-name="Rectangle 5" class="cls-13" width="5" height="71" transform="translate(267 536)"/>
        </g>
        <g transform="translate(-59 -536)">
          <rect id="Rectangle_5-11" data-name="Rectangle 5" class="cls-13" width="5" height="71" transform="translate(267 536)"/>
        </g>
        <g transform="translate(-7 -536)">
          <rect id="Rectangle_5-12" data-name="Rectangle 5" class="cls-13" width="5" height="71" transform="translate(267 536)"/>
        </g>
      </g>
      <g id="Repeat_Grid_2-2" data-name="Repeat Grid 2" class="cls-14" transform="translate(312 353)">
        <g transform="translate(-310 -353)">
          <path id="Rectangle_6-4" data-name="Rectangle 6" class="cls-15" d="M4.5,0h0A4.5,4.5,0,0,1,9,4.5V142a0,0,0,0,1,0,0H0a0,0,0,0,1,0,0V4.5A4.5,4.5,0,0,1,4.5,0Z" transform="translate(310 375)"/>
        </g>
        <g transform="translate(-226 -353)">
          <path id="Rectangle_6-5" data-name="Rectangle 6" class="cls-15" d="M4.5,0h0A4.5,4.5,0,0,1,9,4.5V142a0,0,0,0,1,0,0H0a0,0,0,0,1,0,0V4.5A4.5,4.5,0,0,1,4.5,0Z" transform="translate(310 375)"/>
        </g>
        <g transform="translate(-142 -353)">
          <path id="Rectangle_6-6" data-name="Rectangle 6" class="cls-15" d="M4.5,0h0A4.5,4.5,0,0,1,9,4.5V142a0,0,0,0,1,0,0H0a0,0,0,0,1,0,0V4.5A4.5,4.5,0,0,1,4.5,0Z" transform="translate(310 375)"/>
        </g>
      </g>
      <ellipse id="Ellipse_9" data-name="Ellipse 9" class="cls-16" cx="90" cy="91" rx="90" ry="91" transform="translate(433 88)"/>
      <ellipse id="Ellipse_10" data-name="Ellipse 10" class="cls-16" cx="90" cy="91" rx="90" ry="91" transform="translate(186 88)"/>
      <text id="_4FIT-2" data-name="4FIT" class="cls-17" transform="translate(415.5 392.5) rotate(90)"><tspan x="0" y="0">4FIT</tspan></text>
      <text id="_4FIT-3" data-name="4FIT" class="cls-18" transform="translate(417.5 394.5) rotate(90)"><tspan x="0" y="0">4FIT</tspan></text>
      <ellipse id="Ellipse_12-2" data-name="Ellipse 12" class="cls-19" cx="19" cy="7" rx="19" ry="7" transform="translate(296 698)"/>
      <ellipse id="Ellipse_16" data-name="Ellipse 16" class="cls-19" cx="19" cy="7" rx="19" ry="7" transform="translate(298 700)"/>
      <ellipse id="Ellipse_17" data-name="Ellipse 17" class="cls-19" cx="19" cy="7" rx="19" ry="7" transform="translate(469 700)"/>
      <ellipse id="Ellipse_13-2" data-name="Ellipse 13" class="cls-19" cx="19" cy="7" rx="19" ry="7" transform="translate(467 698)"/>
      <circle id="Ellipse_14" data-name="Ellipse 14" class="cls-20" cx="6.5" cy="6.5" r="6.5" transform="translate(315 651)"/>
      <circle id="Ellipse_15" data-name="Ellipse 15" class="cls-20" cx="6.5" cy="6.5" r="6.5" transform="translate(486 651)"/>
    </g>
    <rect id="Rectangle_7" data-name="Rectangle 7" width="279" height="5" transform="translate(263 355)"/>
    <rect id="Rectangle_8" data-name="Rectangle 8" width="284" height="5" transform="translate(258 609)"/>
    <path id="Path_3" data-name="Path 3" d="M3.017,0h34.2a2.863,2.863,0,0,1,3.017,2.678,2.863,2.863,0,0,1-3.017,2.678H3.017A2.863,2.863,0,0,1,0,2.678,2.863,2.863,0,0,1,3.017,0Z" transform="translate(617.47 165.586) rotate(90)"/>
    <path id="Path_4" data-name="Path 4" d="M.724,0h8.2c.4,0,.724.921.724,2.057s-.324,2.057-.724,2.057H.724C.324,4.114,0,3.193,0,2.057S.324,0,.724,0Z" transform="matrix(0.996, 0.087, -0.087, 0.996, 202.874, 353.853)"/>
    <path id="Path_5" data-name="Path 5" d="M.724,0h8.2c.4,0,.724.921.724,2.057s-.324,2.057-.724,2.057H.724C.324,4.114,0,3.193,0,2.057S.324,0,.724,0Z" transform="matrix(0.996, 0.087, -0.087, 0.996, 202.874, 355.853)"/>
  </g>
</svg>
